<svg width="32" height="32" viewBox="0 0 32 32" fill="none" xmlns="http://www.w3.org/2000/svg">
  <defs>
    <linearGradient id="notificationGradient" x1="0%" y1="0%" x2="100%" y2="100%">
      <stop offset="0%" style="stop-color:#FF6B6B;stop-opacity:1" />
      <stop offset="50%" style="stop-color:#FF8E53;stop-opacity:1" />
      <stop offset="100%" style="stop-color:#FFD93D;stop-opacity:1" />
    </linearGradient>
    <filter id="notificationGlow">
      <feGaussianBlur stdDeviation="1.5" result="coloredBlur"/>
      <feMerge> 
        <feMergeNode in="coloredBlur"/>
        <feMergeNode in="SourceGraphic"/>
      </feMerge>
    </filter>
  </defs>
  
  <!-- Bell body -->
  <path d="M16 4 C12 4, 9 7, 9 11 L9 17 C9 19, 7 21, 5 21 L27 21 C25 21, 23 19, 23 17 L23 11 C23 7, 20 4, 16 4 Z" 
        fill="url(#notificationGradient)" opacity="0.3" filter="url(#notificationGlow)"/>
  <path d="M16 4 C12 4, 9 7, 9 11 L9 17 C9 19, 7 21, 5 21 L27 21 C25 21, 23 19, 23 17 L23 11 C23 7, 20 4, 16 4 Z" 
        fill="none" stroke="url(#notificationGradient)" stroke-width="2" opacity="0.8"/>
  
  <!-- Bell bottom -->
  <path d="M13 24 C13 26, 14.5 28, 16 28 C17.5 28, 19 26, 19 24" 
        stroke="url(#notificationGradient)" stroke-width="2" stroke-linecap="round" opacity="0.8"/>
  
  <!-- Notification badge -->
  <circle cx="24" cy="8" r="4" fill="#FF4444" filter="url(#notificationGlow)">
    <animate attributeName="r" values="3;5;3" dur="1.5s" repeatCount="indefinite"/>
  </circle>
  <circle cx="24" cy="8" r="2" fill="#FFFFFF" opacity="0.9"/>
  
  <!-- Sound waves -->
  <path d="M26 6 C28 8, 28 12, 26 14" stroke="url(#notificationGradient)" stroke-width="1.5" fill="none" opacity="0.6">
    <animate attributeName="opacity" values="0.3;0.8;0.3" dur="2s" repeatCount="indefinite"/>
  </path>
  <path d="M28 4 C31 7, 31 13, 28 16" stroke="url(#notificationGradient)" stroke-width="1.5" fill="none" opacity="0.4">
    <animate attributeName="opacity" values="0.2;0.6;0.2" dur="2s" begin="0.5s" repeatCount="indefinite"/>
  </path>
</svg>
